# xmcd
#
# Track frame offsets:
#	150
#	21143
#	38680
#	58229
#	81230
#	104667
#	135695
#	156016
#	180381
#	201103
#	223120
#
# Disc length: 4158 seconds
#
# Revision: 0
# Processed by: cddbd v1.5.1PL2 Copyright (c) Steve Scherf et al.
# Submitted via: EasyCDDAExtractor 8.2.1.1
#
DISCID=98103c0b
DTITLE=Blindside Blues Band - Long Hard Road
DYEAR=2006
DGENRE=Blues
TTITLE0=Electric Woman
TTITLE1=Mercury Man
TTITLE2=Outside Woman Blues
TTITLE3=I Should've Loved You
TTITLE4=The Power
TTITLE5=Time Before The Sun
TTITLE6=Pack It Up And Go
TTITLE7=Sacred Son
TTITLE8=Gypsy Blood
TTITLE9=Wall Of Illusion
TTITLE10=Hot Shot
EXTD=
EXTT0=
EXTT1=
EXTT2=
EXTT3=
EXTT4=
EXTT5=
EXTT6=
EXTT7=
EXTT8=
EXTT9=
EXTT10=
PLAYORDER=
